<?xml version="1.0" encoding="UTF-8"?>
<svg xmlns="http://www.w3.org/2000/svg" xmlns:xlink="http://www.w3.org/1999/xlink" width="400pt" height="600pt" viewBox="0 0 400 600" version="1.1">
<g id="surface1">
<path style="fill:none;stroke-width:2;stroke-linecap:butt;stroke-linejoin:miter;stroke:rgb(0%,0%,100%);stroke-opacity:1;stroke-miterlimit:10;" d="M 0 600 L 400 600 M 150 600 L 183.308594 528.625 C 184.097656 526.9375 182.863281 525 181 525 L 169 525 C 167.136719 525 165.902344 523.0625 166.691406 521.375 L 200 450 L 233.308594 521.375 C 234.097656 523.0625 232.863281 525 231 525 L 219 525 C 217.136719 525 215.902344 526.9375 216.691406 528.625 L 250 600 M 173.5 549.644531 L 173.5 573.214844 L 176.5 573.214844 L 176.5 543.214844 M 223.5 543.214844 L 223.5 573.214844 L 226.5 573.214844 L 226.5 549.644531 M 100 600 L 133.308594 528.625 C 134.097656 526.9375 132.863281 525 131 525 L 119 525 C 117.136719 525 115.902344 523.0625 116.691406 521.375 L 183.308594 378.625 C 184.097656 376.9375 182.863281 375 181 375 L 169 375 C 167.136719 375 165.902344 373.0625 166.691406 371.375 L 200 300 L 233.308594 371.375 C 234.097656 373.0625 232.863281 375 231 375 L 219 375 C 217.136719 375 215.902344 376.9375 216.691406 378.625 L 283.308594 521.375 C 284.097656 523.0625 282.863281 525 281 525 L 269 525 C 267.136719 525 265.902344 526.9375 266.691406 528.625 L 300 600 M 123.5 549.644531 L 123.5 573.214844 L 126.5 573.214844 L 126.5 543.214844 M 273.5 543.214844 L 273.5 573.214844 L 276.5 573.214844 L 276.5 549.644531 M 173.5 399.644531 L 173.5 450 L 176.5 450 L 176.5 393.214844 M 223.5 393.214844 L 223.5 450 L 226.5 450 L 226.5 399.644531 M 50 600 L 83.308594 528.625 C 84.097656 526.9375 82.863281 525 81 525 L 69 525 C 67.136719 525 65.902344 523.0625 66.691406 521.375 L 133.308594 378.625 C 134.097656 376.9375 132.863281 375 131 375 L 119 375 C 117.136719 375 115.902344 373.0625 116.691406 371.375 L 183.308594 228.625 C 184.097656 226.9375 182.863281 225 181 225 L 169 225 C 167.136719 225 165.902344 223.0625 166.691406 221.375 L 200 150 L 233.308594 221.375 C 234.097656 223.0625 232.863281 225 231 225 L 219 225 C 217.136719 225 215.902344 226.9375 216.691406 228.625 L 283.308594 371.375 C 284.097656 373.0625 282.863281 375 281 375 L 269 375 C 267.136719 375 265.902344 376.9375 266.691406 378.625 L 333.308594 521.375 C 334.097656 523.0625 332.863281 525 331 525 L 319 525 C 317.136719 525 315.902344 526.9375 316.691406 528.625 L 350 600 M 73.5 549.644531 L 73.5 573.214844 L 76.5 573.214844 L 76.5 543.214844 M 323.5 543.214844 L 323.5 573.214844 L 326.5 573.214844 L 326.5 549.644531 M 123.5 399.644531 L 123.5 450 L 126.5 450 L 126.5 393.214844 M 273.5 393.214844 L 273.5 450 L 276.5 450 L 276.5 399.644531 M 173.5 249.644531 L 173.5 300 L 176.5 300 L 176.5 243.214844 M 223.5 243.214844 L 223.5 300 L 226.5 300 L 226.5 249.644531 M 0 600 L 33.308594 528.625 C 34.097656 526.9375 32.863281 525 31 525 L 19 525 C 17.136719 525 15.902344 523.0625 16.691406 521.375 L 83.308594 378.625 C 84.097656 376.9375 82.863281 375 81 375 L 69 375 C 67.136719 375 65.902344 373.0625 66.691406 371.375 L 133.308594 228.625 C 134.097656 226.9375 132.863281 225 131 225 L 119 225 C 117.136719 225 115.902344 223.0625 116.691406 221.375 L 183.308594 78.625 C 184.097656 76.9375 182.863281 75 181 75 L 169 75 C 167.136719 75 165.902344 73.0625 166.691406 71.375 L 200 0 L 233.308594 71.375 C 234.097656 73.0625 232.863281 75 231 75 L 219 75 C 217.136719 75 215.902344 76.9375 216.691406 78.625 L 283.308594 221.375 C 284.097656 223.0625 282.863281 225 281 225 L 269 225 C 267.136719 225 265.902344 226.9375 266.691406 228.625 L 333.308594 371.375 C 334.097656 373.0625 332.863281 375 331 375 L 319 375 C 317.136719 375 315.902344 376.9375 316.691406 378.625 L 383.308594 521.375 C 384.097656 523.0625 382.863281 525 381 525 L 369 525 C 367.136719 525 365.902344 526.9375 366.691406 528.625 L 400 600 M 23.5 549.644531 L 23.5 573.214844 L 26.5 573.214844 L 26.5 543.214844 M 373.5 543.214844 L 373.5 573.214844 L 376.5 573.214844 L 376.5 549.644531 M 73.5 399.644531 L 73.5 450 L 76.5 450 L 76.5 393.214844 M 323.5 393.214844 L 323.5 450 L 326.5 450 L 326.5 399.644531 M 123.5 249.644531 L 123.5 300 L 126.5 300 L 126.5 243.214844 M 273.5 243.214844 L 273.5 300 L 276.5 300 L 276.5 249.644531 M 173.5 99.644531 L 173.5 150 L 176.5 150 L 176.5 93.214844 M 223.5 93.214844 L 223.5 150 L 226.5 150 L 226.5 99.644531 "/>
<path style="fill:none;stroke-width:2;stroke-linecap:butt;stroke-linejoin:miter;stroke:rgb(0%,0%,100%);stroke-opacity:1;stroke-miterlimit:10;" d="M 186.871094 514.257812 C 186.871094 520.921875 176.871094 520.921875 176.871094 514.257812 C 176.871094 507.589844 186.871094 507.589844 186.871094 514.257812 M 223.128906 514.257812 C 223.128906 520.921875 213.128906 520.921875 213.128906 514.257812 C 213.128906 507.589844 223.128906 507.589844 223.128906 514.257812 M 136.871094 514.257812 C 136.871094 520.921875 126.871094 520.921875 126.871094 514.257812 C 126.871094 507.589844 136.871094 507.589844 136.871094 514.257812 M 186.871094 364.257812 C 186.871094 370.921875 176.871094 370.921875 176.871094 364.257812 C 176.871094 357.589844 186.871094 357.589844 186.871094 364.257812 M 223.128906 364.257812 C 223.128906 370.921875 213.128906 370.921875 213.128906 364.257812 C 213.128906 357.589844 223.128906 357.589844 223.128906 364.257812 M 273.128906 514.257812 C 273.128906 520.921875 263.128906 520.921875 263.128906 514.257812 C 263.128906 507.589844 273.128906 507.589844 273.128906 514.257812 M 86.871094 514.257812 C 86.871094 520.921875 76.871094 520.921875 76.871094 514.257812 C 76.871094 507.589844 86.871094 507.589844 86.871094 514.257812 M 136.871094 364.257812 C 136.871094 370.921875 126.871094 370.921875 126.871094 364.257812 C 126.871094 357.589844 136.871094 357.589844 136.871094 364.257812 M 186.871094 214.257812 C 186.871094 220.921875 176.871094 220.921875 176.871094 214.257812 C 176.871094 207.589844 186.871094 207.589844 186.871094 214.257812 M 223.128906 214.257812 C 223.128906 220.921875 213.128906 220.921875 213.128906 214.257812 C 213.128906 207.589844 223.128906 207.589844 223.128906 214.257812 M 273.128906 364.257812 C 273.128906 370.921875 263.128906 370.921875 263.128906 364.257812 C 263.128906 357.589844 273.128906 357.589844 273.128906 364.257812 M 323.128906 514.257812 C 323.128906 520.921875 313.128906 520.921875 313.128906 514.257812 C 313.128906 507.589844 323.128906 507.589844 323.128906 514.257812 M 36.871094 514.257812 C 36.871094 520.921875 26.871094 520.921875 26.871094 514.257812 C 26.871094 507.589844 36.871094 507.589844 36.871094 514.257812 M 86.871094 364.257812 C 86.871094 370.921875 76.871094 370.921875 76.871094 364.257812 C 76.871094 357.589844 86.871094 357.589844 86.871094 364.257812 M 136.871094 214.257812 C 136.871094 220.921875 126.871094 220.921875 126.871094 214.257812 C 126.871094 207.589844 136.871094 207.589844 136.871094 214.257812 M 186.871094 64.257812 C 186.871094 70.921875 176.871094 70.921875 176.871094 64.257812 C 176.871094 57.589844 186.871094 57.589844 186.871094 64.257812 M 223.128906 64.257812 C 223.128906 70.921875 213.128906 70.921875 213.128906 64.257812 C 213.128906 57.589844 223.128906 57.589844 223.128906 64.257812 M 273.128906 214.257812 C 273.128906 220.921875 263.128906 220.921875 263.128906 214.257812 C 263.128906 207.589844 273.128906 207.589844 273.128906 214.257812 M 323.128906 364.257812 C 323.128906 370.921875 313.128906 370.921875 313.128906 364.257812 C 313.128906 357.589844 323.128906 357.589844 323.128906 364.257812 M 373.128906 514.257812 C 373.128906 520.921875 363.128906 520.921875 363.128906 514.257812 C 363.128906 507.589844 373.128906 507.589844 373.128906 514.257812 "/>
</g>
</svg>
